<mxfile host="app.diagrams.net" agent="Mozilla/5.0 (Windows NT 10.0; Win64; x64) AppleWebKit/537.36 (KHTML, like Gecko) Chrome/109.0.0.0 Safari/537.36" version="27.0.3">
  <diagram name="第 1 页" id="VJqGpHK_hBU0YjldIxZ_">
    <mxGraphModel dx="2466" dy="3202" grid="1" gridSize="10" guides="1" tooltips="1" connect="1" arrows="1" fold="1" page="1" pageScale="1" pageWidth="827" pageHeight="1169" math="0" shadow="0">
      <root>
        <mxCell id="0" />
        <mxCell id="1" parent="0" />
        <mxCell id="blgkgGkyqvTxpVyRCeMW-335" value="" style="rounded=1;whiteSpace=wrap;html=1;dashed=1;" vertex="1" parent="1">
          <mxGeometry x="195.88" y="-1155" width="484.12" height="320" as="geometry" />
        </mxCell>
        <mxCell id="blgkgGkyqvTxpVyRCeMW-338" style="edgeStyle=orthogonalEdgeStyle;rounded=0;orthogonalLoop=1;jettySize=auto;html=1;exitX=1;exitY=0.5;exitDx=0;exitDy=0;entryX=0;entryY=0.5;entryDx=0;entryDy=0;shape=flexArrow;fillColor=light-dark(#330000,#330000);" edge="1" parent="1" source="blgkgGkyqvTxpVyRCeMW-333" target="blgkgGkyqvTxpVyRCeMW-287">
          <mxGeometry relative="1" as="geometry">
            <Array as="points" />
          </mxGeometry>
        </mxCell>
        <mxCell id="blgkgGkyqvTxpVyRCeMW-333" value="" style="rounded=1;whiteSpace=wrap;html=1;dashed=1;" vertex="1" parent="1">
          <mxGeometry x="-208.34" y="-1155" width="340" height="320" as="geometry" />
        </mxCell>
        <mxCell id="blgkgGkyqvTxpVyRCeMW-289" value="" style="group" vertex="1" connectable="0" parent="1">
          <mxGeometry x="170" y="-975" width="200" height="75" as="geometry" />
        </mxCell>
        <mxCell id="blgkgGkyqvTxpVyRCeMW-285" value="" style="group" vertex="1" connectable="0" parent="blgkgGkyqvTxpVyRCeMW-289">
          <mxGeometry x="100" y="25" width="100" height="50" as="geometry" />
        </mxCell>
        <mxCell id="blgkgGkyqvTxpVyRCeMW-284" value="" style="rounded=1;whiteSpace=wrap;html=1;" vertex="1" parent="blgkgGkyqvTxpVyRCeMW-285">
          <mxGeometry x="6" width="84" height="50" as="geometry" />
        </mxCell>
        <mxCell id="blgkgGkyqvTxpVyRCeMW-250" value="&lt;span style=&quot;font-size: 18px;&quot;&gt;&lt;b&gt;联邦聚合&lt;/b&gt;&lt;/span&gt;" style="text;html=1;align=center;verticalAlign=middle;resizable=0;points=[];autosize=1;strokeColor=none;fillColor=none;fontFamily=Helvetica;fontSize=11;fontColor=default;labelBackgroundColor=default;" vertex="1" parent="blgkgGkyqvTxpVyRCeMW-285">
          <mxGeometry y="5" width="100" height="40" as="geometry" />
        </mxCell>
        <mxCell id="blgkgGkyqvTxpVyRCeMW-296" value="" style="image;aspect=fixed;perimeter=ellipsePerimeter;html=1;align=center;shadow=0;dashed=0;spacingTop=3;image=img/lib/active_directory/laptop_client.svg;" vertex="1" parent="1">
          <mxGeometry x="-169" y="-1122.86" width="63" height="70" as="geometry" />
        </mxCell>
        <mxCell id="blgkgGkyqvTxpVyRCeMW-297" value="" style="sketch=0;outlineConnect=0;fontColor=#232F3E;gradientColor=none;fillColor=#232F3D;strokeColor=none;dashed=0;verticalLabelPosition=bottom;verticalAlign=top;align=center;html=1;fontSize=12;fontStyle=0;aspect=fixed;pointerEvents=1;shape=mxgraph.aws4.mobile_client;" vertex="1" parent="1">
          <mxGeometry x="-157.34" y="-1032.74" width="39.68" height="75.48" as="geometry" />
        </mxCell>
        <mxCell id="blgkgGkyqvTxpVyRCeMW-298" value="" style="image;aspect=fixed;perimeter=ellipsePerimeter;html=1;align=center;shadow=0;dashed=0;spacingTop=3;image=img/lib/active_directory/workstation_client.svg;" vertex="1" parent="1">
          <mxGeometry x="-180" y="-952.26" width="85" height="100" as="geometry" />
        </mxCell>
        <mxCell id="blgkgGkyqvTxpVyRCeMW-306" value="" style="group" vertex="1" connectable="0" parent="1">
          <mxGeometry x="209.99999999999994" y="-1015" width="110" height="40" as="geometry" />
        </mxCell>
        <mxCell id="blgkgGkyqvTxpVyRCeMW-287" value="" style="rounded=1;whiteSpace=wrap;html=1;" vertex="1" parent="blgkgGkyqvTxpVyRCeMW-306">
          <mxGeometry width="110" height="40" as="geometry" />
        </mxCell>
        <mxCell id="blgkgGkyqvTxpVyRCeMW-288" value="&lt;span style=&quot;font-size: 18px;&quot;&gt;&lt;b&gt;心跳监测&lt;/b&gt;&lt;/span&gt;" style="text;html=1;align=center;verticalAlign=middle;resizable=0;points=[];autosize=1;strokeColor=none;fillColor=none;fontFamily=Helvetica;fontSize=11;fontColor=default;labelBackgroundColor=default;" vertex="1" parent="blgkgGkyqvTxpVyRCeMW-306">
          <mxGeometry x="4.999999999999996" width="100" height="40" as="geometry" />
        </mxCell>
        <mxCell id="blgkgGkyqvTxpVyRCeMW-310" value="" style="group" vertex="1" connectable="0" parent="1">
          <mxGeometry x="-85" y="-1095" width="80" height="30" as="geometry" />
        </mxCell>
        <mxCell id="blgkgGkyqvTxpVyRCeMW-308" value="" style="endArrow=classic;html=1;rounded=0;" edge="1" parent="blgkgGkyqvTxpVyRCeMW-310">
          <mxGeometry width="50" height="50" relative="1" as="geometry">
            <mxPoint x="5" y="27.59999999999991" as="sourcePoint" />
            <mxPoint x="75" y="27.59999999999991" as="targetPoint" />
          </mxGeometry>
        </mxCell>
        <mxCell id="blgkgGkyqvTxpVyRCeMW-309" value="&lt;b&gt;&lt;font style=&quot;font-size: 15px;&quot;&gt;本地训练&lt;/font&gt;&lt;/b&gt;" style="text;html=1;align=center;verticalAlign=middle;resizable=0;points=[];autosize=1;strokeColor=none;fillColor=none;" vertex="1" parent="blgkgGkyqvTxpVyRCeMW-310">
          <mxGeometry width="80" height="30" as="geometry" />
        </mxCell>
        <mxCell id="blgkgGkyqvTxpVyRCeMW-311" value="" style="group" vertex="1" connectable="0" parent="1">
          <mxGeometry x="-85" y="-1010" width="80" height="30" as="geometry" />
        </mxCell>
        <mxCell id="blgkgGkyqvTxpVyRCeMW-312" value="" style="endArrow=classic;html=1;rounded=0;" edge="1" parent="blgkgGkyqvTxpVyRCeMW-311">
          <mxGeometry width="50" height="50" relative="1" as="geometry">
            <mxPoint x="5" y="27.59999999999991" as="sourcePoint" />
            <mxPoint x="75" y="27.59999999999991" as="targetPoint" />
          </mxGeometry>
        </mxCell>
        <mxCell id="blgkgGkyqvTxpVyRCeMW-313" value="&lt;b&gt;&lt;font style=&quot;font-size: 15px;&quot;&gt;本地训练&lt;/font&gt;&lt;/b&gt;" style="text;html=1;align=center;verticalAlign=middle;resizable=0;points=[];autosize=1;strokeColor=none;fillColor=none;" vertex="1" parent="blgkgGkyqvTxpVyRCeMW-311">
          <mxGeometry width="80" height="30" as="geometry" />
        </mxCell>
        <mxCell id="blgkgGkyqvTxpVyRCeMW-314" value="" style="group" vertex="1" connectable="0" parent="1">
          <mxGeometry x="-85" y="-915" width="80" height="30" as="geometry" />
        </mxCell>
        <mxCell id="blgkgGkyqvTxpVyRCeMW-315" value="" style="endArrow=classic;html=1;rounded=0;" edge="1" parent="blgkgGkyqvTxpVyRCeMW-314">
          <mxGeometry width="50" height="50" relative="1" as="geometry">
            <mxPoint x="5" y="27.59999999999991" as="sourcePoint" />
            <mxPoint x="75" y="27.59999999999991" as="targetPoint" />
          </mxGeometry>
        </mxCell>
        <mxCell id="blgkgGkyqvTxpVyRCeMW-316" value="&lt;b&gt;&lt;font style=&quot;font-size: 15px;&quot;&gt;本地训练&lt;/font&gt;&lt;/b&gt;" style="text;html=1;align=center;verticalAlign=middle;resizable=0;points=[];autosize=1;strokeColor=none;fillColor=none;" vertex="1" parent="blgkgGkyqvTxpVyRCeMW-314">
          <mxGeometry width="80" height="30" as="geometry" />
        </mxCell>
        <mxCell id="blgkgGkyqvTxpVyRCeMW-317" value="" style="group" vertex="1" connectable="0" parent="1">
          <mxGeometry y="-1095" width="110" height="30" as="geometry" />
        </mxCell>
        <mxCell id="blgkgGkyqvTxpVyRCeMW-323" value="" style="group" vertex="1" connectable="0" parent="blgkgGkyqvTxpVyRCeMW-317">
          <mxGeometry x="-1" width="71" height="30" as="geometry" />
        </mxCell>
        <mxCell id="blgkgGkyqvTxpVyRCeMW-318" value="" style="rounded=1;whiteSpace=wrap;html=1;" vertex="1" parent="blgkgGkyqvTxpVyRCeMW-323">
          <mxGeometry x="1" width="70" height="30" as="geometry" />
        </mxCell>
        <mxCell id="blgkgGkyqvTxpVyRCeMW-319" value="&lt;b style=&quot;&quot;&gt;&lt;font style=&quot;font-size: 15px;&quot;&gt;激活值&lt;/font&gt;&lt;/b&gt;" style="text;html=1;align=center;verticalAlign=middle;resizable=0;points=[];autosize=1;strokeColor=none;fillColor=none;fontFamily=Helvetica;fontSize=11;fontColor=default;labelBackgroundColor=default;" vertex="1" parent="blgkgGkyqvTxpVyRCeMW-323">
          <mxGeometry width="70" height="30" as="geometry" />
        </mxCell>
        <mxCell id="blgkgGkyqvTxpVyRCeMW-325" value="" style="group" vertex="1" connectable="0" parent="1">
          <mxGeometry y="-1000" width="110" height="30" as="geometry" />
        </mxCell>
        <mxCell id="blgkgGkyqvTxpVyRCeMW-326" value="" style="group" vertex="1" connectable="0" parent="blgkgGkyqvTxpVyRCeMW-325">
          <mxGeometry x="-1" width="71" height="30" as="geometry" />
        </mxCell>
        <mxCell id="blgkgGkyqvTxpVyRCeMW-327" value="" style="rounded=1;whiteSpace=wrap;html=1;" vertex="1" parent="blgkgGkyqvTxpVyRCeMW-326">
          <mxGeometry x="1" width="70" height="30" as="geometry" />
        </mxCell>
        <mxCell id="blgkgGkyqvTxpVyRCeMW-328" value="&lt;b style=&quot;&quot;&gt;&lt;font style=&quot;font-size: 15px;&quot;&gt;激活值&lt;/font&gt;&lt;/b&gt;" style="text;html=1;align=center;verticalAlign=middle;resizable=0;points=[];autosize=1;strokeColor=none;fillColor=none;fontFamily=Helvetica;fontSize=11;fontColor=default;labelBackgroundColor=default;" vertex="1" parent="blgkgGkyqvTxpVyRCeMW-326">
          <mxGeometry width="70" height="30" as="geometry" />
        </mxCell>
        <mxCell id="blgkgGkyqvTxpVyRCeMW-329" value="" style="group" vertex="1" connectable="0" parent="1">
          <mxGeometry y="-904" width="110" height="30" as="geometry" />
        </mxCell>
        <mxCell id="blgkgGkyqvTxpVyRCeMW-330" value="" style="group" vertex="1" connectable="0" parent="blgkgGkyqvTxpVyRCeMW-329">
          <mxGeometry x="-1" width="71" height="30" as="geometry" />
        </mxCell>
        <mxCell id="blgkgGkyqvTxpVyRCeMW-331" value="" style="rounded=1;whiteSpace=wrap;html=1;" vertex="1" parent="blgkgGkyqvTxpVyRCeMW-330">
          <mxGeometry x="1" width="70" height="30" as="geometry" />
        </mxCell>
        <mxCell id="blgkgGkyqvTxpVyRCeMW-332" value="&lt;b style=&quot;&quot;&gt;&lt;font style=&quot;font-size: 15px;&quot;&gt;激活值&lt;/font&gt;&lt;/b&gt;" style="text;html=1;align=center;verticalAlign=middle;resizable=0;points=[];autosize=1;strokeColor=none;fillColor=none;fontFamily=Helvetica;fontSize=11;fontColor=default;labelBackgroundColor=default;" vertex="1" parent="blgkgGkyqvTxpVyRCeMW-330">
          <mxGeometry width="70" height="30" as="geometry" />
        </mxCell>
        <mxCell id="blgkgGkyqvTxpVyRCeMW-340" value="" style="group" vertex="1" connectable="0" parent="1">
          <mxGeometry x="470" y="-1095" width="133.24999999999994" height="50" as="geometry" />
        </mxCell>
        <mxCell id="blgkgGkyqvTxpVyRCeMW-341" value="" style="rounded=1;whiteSpace=wrap;html=1;" vertex="1" parent="blgkgGkyqvTxpVyRCeMW-340">
          <mxGeometry x="6.5" width="123.49999999999999" height="50" as="geometry" />
        </mxCell>
        <mxCell id="blgkgGkyqvTxpVyRCeMW-342" value="&lt;span style=&quot;font-size: 18px;&quot;&gt;&lt;b&gt;服务端侧训练&lt;/b&gt;&lt;/span&gt;" style="text;html=1;align=center;verticalAlign=middle;resizable=0;points=[];autosize=1;strokeColor=none;fillColor=none;fontFamily=Helvetica;fontSize=11;fontColor=default;labelBackgroundColor=default;" vertex="1" parent="blgkgGkyqvTxpVyRCeMW-340">
          <mxGeometry x="3.249999999999943" y="5" width="130" height="40" as="geometry" />
        </mxCell>
        <mxCell id="blgkgGkyqvTxpVyRCeMW-356" value="" style="group" vertex="1" connectable="0" parent="1">
          <mxGeometry x="-88.34" y="-1180" width="100" height="50" as="geometry" />
        </mxCell>
        <mxCell id="blgkgGkyqvTxpVyRCeMW-355" value="" style="rounded=1;whiteSpace=wrap;html=1;" vertex="1" parent="blgkgGkyqvTxpVyRCeMW-356">
          <mxGeometry width="94" height="50" as="geometry" />
        </mxCell>
        <mxCell id="blgkgGkyqvTxpVyRCeMW-351" value="&lt;b&gt;&lt;font style=&quot;font-size: 25px;&quot;&gt;客户端&lt;/font&gt;&lt;/b&gt;" style="text;html=1;align=center;verticalAlign=middle;resizable=0;points=[];autosize=1;strokeColor=none;fillColor=none;" vertex="1" parent="blgkgGkyqvTxpVyRCeMW-356">
          <mxGeometry y="5" width="100" height="40" as="geometry" />
        </mxCell>
        <mxCell id="blgkgGkyqvTxpVyRCeMW-357" value="" style="group" vertex="1" connectable="0" parent="1">
          <mxGeometry x="390" y="-1180" width="100" height="50" as="geometry" />
        </mxCell>
        <mxCell id="blgkgGkyqvTxpVyRCeMW-358" value="" style="rounded=1;whiteSpace=wrap;html=1;" vertex="1" parent="blgkgGkyqvTxpVyRCeMW-357">
          <mxGeometry width="94" height="50" as="geometry" />
        </mxCell>
        <mxCell id="blgkgGkyqvTxpVyRCeMW-359" value="&lt;b&gt;&lt;font style=&quot;font-size: 25px;&quot;&gt;服务端&lt;/font&gt;&lt;/b&gt;" style="text;html=1;align=center;verticalAlign=middle;resizable=0;points=[];autosize=1;strokeColor=none;fillColor=none;" vertex="1" parent="blgkgGkyqvTxpVyRCeMW-357">
          <mxGeometry y="5" width="100" height="40" as="geometry" />
        </mxCell>
        <mxCell id="blgkgGkyqvTxpVyRCeMW-360" style="rounded=0;orthogonalLoop=1;jettySize=auto;html=1;entryX=1;entryY=0.5;entryDx=0;entryDy=0;exitX=1.005;exitY=0.499;exitDx=0;exitDy=0;exitPerimeter=0;edgeStyle=orthogonalEdgeStyle;endArrow=none;startFill=0;" edge="1" parent="1" source="blgkgGkyqvTxpVyRCeMW-319" target="blgkgGkyqvTxpVyRCeMW-333">
          <mxGeometry relative="1" as="geometry">
            <Array as="points">
              <mxPoint x="90" y="-1080" />
              <mxPoint x="90" y="-995" />
            </Array>
          </mxGeometry>
        </mxCell>
        <mxCell id="blgkgGkyqvTxpVyRCeMW-363" style="rounded=0;orthogonalLoop=1;jettySize=auto;html=1;entryX=1;entryY=0.5;entryDx=0;entryDy=0;exitX=1;exitY=0.5;exitDx=0;exitDy=0;edgeStyle=orthogonalEdgeStyle;endArrow=none;startFill=0;" edge="1" parent="1" source="blgkgGkyqvTxpVyRCeMW-327" target="blgkgGkyqvTxpVyRCeMW-333">
          <mxGeometry relative="1" as="geometry">
            <Array as="points">
              <mxPoint x="70" y="-995" />
            </Array>
          </mxGeometry>
        </mxCell>
        <mxCell id="blgkgGkyqvTxpVyRCeMW-362" style="rounded=0;orthogonalLoop=1;jettySize=auto;html=1;entryX=1;entryY=0.5;entryDx=0;entryDy=0;exitX=1;exitY=0.5;exitDx=0;exitDy=0;edgeStyle=orthogonalEdgeStyle;endArrow=none;startFill=0;" edge="1" parent="1" source="blgkgGkyqvTxpVyRCeMW-331" target="blgkgGkyqvTxpVyRCeMW-333">
          <mxGeometry relative="1" as="geometry">
            <mxPoint x="130" y="-990" as="targetPoint" />
            <mxPoint x="50" y="-910" as="sourcePoint" />
            <Array as="points">
              <mxPoint x="90" y="-889" />
              <mxPoint x="90" y="-995" />
            </Array>
          </mxGeometry>
        </mxCell>
        <mxCell id="blgkgGkyqvTxpVyRCeMW-364" style="edgeStyle=orthogonalEdgeStyle;rounded=0;orthogonalLoop=1;jettySize=auto;html=1;exitX=1;exitY=0.5;exitDx=0;exitDy=0;entryX=0.03;entryY=0.5;entryDx=0;entryDy=0;entryPerimeter=0;" edge="1" parent="1" source="blgkgGkyqvTxpVyRCeMW-287" target="blgkgGkyqvTxpVyRCeMW-342">
          <mxGeometry relative="1" as="geometry">
            <Array as="points">
              <mxPoint x="340" y="-995" />
              <mxPoint x="340" y="-1070" />
            </Array>
          </mxGeometry>
        </mxCell>
        <mxCell id="blgkgGkyqvTxpVyRCeMW-292" value="" style="group" vertex="1" connectable="0" parent="1">
          <mxGeometry x="404" y="-950" width="130" height="50" as="geometry" />
        </mxCell>
        <mxCell id="blgkgGkyqvTxpVyRCeMW-290" value="" style="rounded=1;whiteSpace=wrap;html=1;" vertex="1" parent="blgkgGkyqvTxpVyRCeMW-292">
          <mxGeometry x="5.6999999999999975" width="118.6" height="50" as="geometry" />
        </mxCell>
        <mxCell id="blgkgGkyqvTxpVyRCeMW-291" value="&lt;span style=&quot;font-size: 18px;&quot;&gt;&lt;b&gt;修正参数计算&lt;/b&gt;&lt;/span&gt;" style="text;html=1;align=center;verticalAlign=middle;resizable=0;points=[];autosize=1;strokeColor=none;fillColor=none;fontFamily=Helvetica;fontSize=11;fontColor=default;labelBackgroundColor=default;" vertex="1" parent="blgkgGkyqvTxpVyRCeMW-292">
          <mxGeometry y="5" width="130" height="40" as="geometry" />
        </mxCell>
        <mxCell id="blgkgGkyqvTxpVyRCeMW-366" style="edgeStyle=orthogonalEdgeStyle;rounded=0;orthogonalLoop=1;jettySize=auto;html=1;entryX=0.5;entryY=0;entryDx=0;entryDy=0;exitX=0.5;exitY=1;exitDx=0;exitDy=0;" edge="1" parent="1" source="blgkgGkyqvTxpVyRCeMW-341" target="blgkgGkyqvTxpVyRCeMW-290">
          <mxGeometry relative="1" as="geometry">
            <mxPoint x="538" y="-1070" as="sourcePoint" />
            <Array as="points">
              <mxPoint x="538" y="-1010" />
              <mxPoint x="469" y="-1010" />
            </Array>
          </mxGeometry>
        </mxCell>
        <mxCell id="blgkgGkyqvTxpVyRCeMW-368" style="edgeStyle=orthogonalEdgeStyle;rounded=0;orthogonalLoop=1;jettySize=auto;html=1;exitX=0;exitY=0.5;exitDx=0;exitDy=0;entryX=1;entryY=0.5;entryDx=0;entryDy=0;" edge="1" parent="1" source="blgkgGkyqvTxpVyRCeMW-290" target="blgkgGkyqvTxpVyRCeMW-284">
          <mxGeometry relative="1" as="geometry">
            <Array as="points">
              <mxPoint x="380" y="-925" />
              <mxPoint x="380" y="-925" />
            </Array>
          </mxGeometry>
        </mxCell>
        <mxCell id="blgkgGkyqvTxpVyRCeMW-369" value="" style="group" vertex="1" connectable="0" parent="1">
          <mxGeometry x="545" y="-950" width="130" height="50" as="geometry" />
        </mxCell>
        <mxCell id="blgkgGkyqvTxpVyRCeMW-370" value="" style="rounded=1;whiteSpace=wrap;html=1;" vertex="1" parent="blgkgGkyqvTxpVyRCeMW-369">
          <mxGeometry x="5.6999999999999975" width="118.6" height="50" as="geometry" />
        </mxCell>
        <mxCell id="blgkgGkyqvTxpVyRCeMW-371" value="&lt;span style=&quot;font-size: 18px;&quot;&gt;&lt;b&gt;历史参数更新&lt;/b&gt;&lt;/span&gt;" style="text;html=1;align=center;verticalAlign=middle;resizable=0;points=[];autosize=1;strokeColor=none;fillColor=none;fontFamily=Helvetica;fontSize=11;fontColor=default;labelBackgroundColor=default;" vertex="1" parent="blgkgGkyqvTxpVyRCeMW-369">
          <mxGeometry y="5" width="130" height="40" as="geometry" />
        </mxCell>
        <mxCell id="blgkgGkyqvTxpVyRCeMW-372" style="edgeStyle=orthogonalEdgeStyle;rounded=0;orthogonalLoop=1;jettySize=auto;html=1;entryX=0.5;entryY=0;entryDx=0;entryDy=0;exitX=0.5;exitY=1;exitDx=0;exitDy=0;" edge="1" parent="1" source="blgkgGkyqvTxpVyRCeMW-341" target="blgkgGkyqvTxpVyRCeMW-370">
          <mxGeometry relative="1" as="geometry">
            <mxPoint x="538" y="-1070" as="sourcePoint" />
            <Array as="points">
              <mxPoint x="538" y="-1010" />
              <mxPoint x="610" y="-1010" />
            </Array>
          </mxGeometry>
        </mxCell>
        <mxCell id="blgkgGkyqvTxpVyRCeMW-377" style="edgeStyle=orthogonalEdgeStyle;rounded=0;orthogonalLoop=1;jettySize=auto;html=1;entryX=0.998;entryY=0.719;entryDx=0;entryDy=0;entryPerimeter=0;shape=flexArrow;fillColor=light-dark(#330000,#330000);exitX=0;exitY=0.5;exitDx=0;exitDy=0;width=3.3333333333333335;endSize=6;strokeWidth=3;" edge="1" parent="1" source="blgkgGkyqvTxpVyRCeMW-284" target="blgkgGkyqvTxpVyRCeMW-333">
          <mxGeometry relative="1" as="geometry">
            <Array as="points">
              <mxPoint x="170" y="-925" />
              <mxPoint x="170" y="-925" />
            </Array>
          </mxGeometry>
        </mxCell>
      </root>
    </mxGraphModel>
  </diagram>
</mxfile>
